<?xml version="1.0" encoding="UTF-8"?>
<svg width="14px" height="14px" viewBox="0 0 14 14" version="1.1" xmlns="http://www.w3.org/2000/svg" xmlns:xlink="http://www.w3.org/1999/xlink">
    <title>reportIcon</title>
    <g id="客户端" stroke="none" stroke-width="1" fill="none" fill-rule="evenodd">
        <g id="评论（图片）" transform="translate(-1333.000000, -1423.000000)" fill="#999999" fill-rule="nonzero">
            <g id="编组-4" transform="translate(320.000000, 1413.000000)">
                <g id="reportIcon" transform="translate(1013.000000, 10.000000)">
                    <path d="M7,0 C10.866,0 14,3.134 14,7 C14,10.866 10.866,14 7,14 C3.134,14 0,10.866 0,7 C0,3.134 3.134,0 7,0 Z M7,1 C3.68633333,1 1,3.68633333 1,7 C1,10.3136667 3.68633333,13 7,13 C10.3136667,13 13,10.3136667 13,7 C13,3.68633333 10.3136667,1 7,1 Z" id="形状"></path>
                    <path d="M6.33333333,3 L7.66666667,3 L7.5,8.66666667 L6.5,8.66666667 L6.33333333,3 Z M6.41666667,9.66666667 L7.58333333,9.66666667 L7.58333333,10.8333333 L6.41666667,10.8333333 L6.41666667,9.66666667 Z" id="形状"></path>
                </g>
            </g>
        </g>
    </g>
</svg>