<?xml version="1.0" encoding="UTF-8"?>
<svg width="18px" height="18px" viewBox="0 0 18 18" version="1.1" xmlns="http://www.w3.org/2000/svg" xmlns:xlink="http://www.w3.org/1999/xlink">
    <title>searchIcon</title>
    <g id="客户端" stroke="none" stroke-width="1" fill="none" fill-rule="evenodd">
        <g id="评论（图片）" transform="translate(-1280.000000, -18.000000)" fill="#B3B3B3" fill-rule="nonzero">
            <g id="编组-2" transform="translate(320.000000, 10.000000)">
                <g id="search" transform="translate(690.000000, 1.000000)">
                    <g id="searchIcon" transform="translate(270.000000, 7.000000)">
                        <path d="M13.9432199,2.40025112 C10.7561384,-0.786830357 5.58942522,-0.786830357 2.40025112,2.40025112 C-0.788922991,5.58733259 -0.786830357,10.7540458 2.40025112,13.9411272 C5.46386719,17.0047433 10.3543527,17.1240234 13.5602679,14.2989676 L17.1616908,17.9003906 L17.9024833,17.1595982 L14.3010603,13.5623605 C17.1261161,10.3564453 17.0068359,5.46386719 13.9432199,2.40025112 Z M14.765625,10.8503069 C14.4077846,11.7313058 13.8825335,12.5244141 13.2024275,13.2024275 C12.5223214,13.8825335 11.7313058,14.4077846 10.8503069,14.765625 C9.99860491,15.1109096 9.09667969,15.2866908 8.17173549,15.2866908 C7.24679129,15.2866908 6.34695871,15.1109096 5.49316406,14.765625 C4.61216518,14.4077846 3.81905692,13.8825335 3.14104353,13.2024275 C2.46303013,12.5223214 1.93568638,11.7313058 1.57784598,10.8503069 C1.23256138,9.99860491 1.05678013,9.09667969 1.05678013,8.17173549 C1.05678013,7.24679129 1.23256138,6.34695871 1.57784598,5.49316406 C1.93568638,4.61216518 2.4609375,3.81905692 3.14104353,3.14104353 C3.82114955,2.46303013 4.61216518,1.93568638 5.49316406,1.57784598 C6.34486607,1.23256138 7.24679129,1.05678013 8.17173549,1.05678013 C9.09667969,1.05678013 9.99651228,1.23256138 10.8503069,1.57784598 C11.7313058,1.93568638 12.5244141,2.4609375 13.2024275,3.14104353 C13.8825335,3.82114955 14.4077846,4.61216518 14.765625,5.49316406 C15.1109096,6.34486607 15.2866908,7.24679129 15.2866908,8.17173549 C15.2866908,9.09667969 15.1109096,9.99860491 14.765625,10.8503069 Z" id="形状"></path>
                    </g>
                </g>
            </g>
        </g>
    </g>
</svg>