<?xml version="1.0" encoding="UTF-8"?>
<svg width="16px" height="16px" viewBox="0 0 16 16" version="1.1" xmlns="http://www.w3.org/2000/svg" xmlns:xlink="http://www.w3.org/1999/xlink">
    <title>share</title>
    <g id="客户端" stroke="none" stroke-width="1" fill="none" fill-rule="evenodd">
        <g id="评论（图片）" transform="translate(-1437.000000, -1422.000000)" fill="#A5A5A5" fill-rule="nonzero">
            <g id="编组-4" transform="translate(320.000000, 1413.000000)">
                <g id="编组-5" transform="translate(1098.000000, 0.000000)">
                    <g id="share" transform="translate(19.000000, 9.000000)">
                        <path d="M7.96130952,15.9003803 C6.88964046,15.9003803 5.84875541,15.6906641 4.86751443,15.2750797 C3.92090549,14.8748873 3.07242065,14.3015347 2.34129991,13.572338 C1.61210318,12.8431412 1.0387506,11.9927324 0.638558203,11.0461234 C0.226821782,10.0668065 0.0151815848,9.02592141 0.0151815848,7.95425234 C0.0151815848,6.88258328 0.224897786,5.84169823 0.640482199,4.86045725 C1.04067459,3.91384831 1.61402718,3.06536347 2.3432239,2.33424273 C3.07242063,1.605046 3.92282948,1.03169342 4.86943843,0.631501023 C5.84875541,0.217840606 6.88964046,0.00620039062 7.96323352,0.00620039062 L7.98247355,0.00620039062 L7.98054953,1.08364148 L7.96323352,1.08364148 C6.12773568,1.08364148 4.40382997,1.79744619 3.10705268,3.09614749 C1.80835138,4.39484879 1.09262266,6.11875452 1.09262266,7.95425234 C1.09262266,9.78975017 1.80642736,11.5136559 3.10512866,12.8104332 C4.40190595,14.1091345 6.1277357,14.8229392 7.96130952,14.8229392 C9.79488335,14.8229392 11.5187891,14.1091345 12.8174904,12.8123572 C14.1142677,11.5155799 14.8299964,9.79167418 14.8299964,7.95810035 L15.9074375,7.95810035 C15.9074375,9.02976942 15.6957972,10.0706545 15.2821368,11.0499714 C14.8819445,11.9965804 14.3085919,12.8450652 13.5793951,13.574262 C12.8501984,14.3034587 11.9997896,14.8748873 11.0551046,15.2750797 C10.0738636,15.6906641 9.03490259,15.9003803 7.96130952,15.9003803 Z M15.8881975,4.97974537 L14.8107564,4.97974537 L14.8107564,1.12981752 L10.9473605,1.12981752 L10.9473605,0.0523764509 L15.8881975,0.0523764509 L15.8881975,4.97974537 Z" id="形状"></path>
                        <polygon id="路径" points="14.9622715 0.20485359 15.7241763 0.966758352 8.86318542 7.82750872 8.10128065 7.06560396"></polygon>
                    </g>
                </g>
            </g>
        </g>
    </g>
</svg>