<?xml version="1.0" encoding="UTF-8"?>
<svg width="24px" height="19px" viewBox="0 0 24 19" version="1.1" xmlns="http://www.w3.org/2000/svg" xmlns:xlink="http://www.w3.org/1999/xlink">
    <title>uploadIcon</title>
    <g id="客户端" stroke="none" stroke-width="1" fill="none" fill-rule="evenodd">
        <g id="评论（图片）" transform="translate(-1451.000000, -18.000000)" fill="#333333" fill-rule="nonzero">
            <g id="编组-2" transform="translate(320.000000, 10.000000)">
                <g id="uploadIcon" transform="translate(1131.000000, 8.000000)">
                    <path d="M22.9098214,9.26517857 C22.3553571,8.55 21.6160714,7.98482143 20.7857143,7.63928571 C20.6330357,5.67053571 19.7946429,3.84107143 18.3830357,2.42946429 C16.8160714,0.8625 14.7348214,0 12.5196429,0 C10.6928571,0 8.95982143,0.58125 7.50803571,1.68482143 C6.81160714,2.21517857 6.20357143,2.84732143 5.70535714,3.56517857 C5.31428571,4.13035714 4.99553571,4.73571429 4.75446429,5.37589286 C3.51696429,5.67053571 2.39464286,6.34553571 1.54553571,7.30982143 C0.549107143,8.44017857 0,9.89464286 0,11.4026786 C0,13.0580357 0.645535714,14.6142857 1.81607143,15.7848214 C2.98660714,16.9553571 4.54285714,17.6008929 6.19821429,17.6008929 C6.73125,17.6008929 7.1625,17.1696429 7.1625,16.6366071 C7.1625,16.1035714 6.73125,15.6723214 6.19821429,15.6723214 C3.84375,15.6723214 1.92857143,13.7571429 1.92857143,11.4026786 C1.92857143,10.3633929 2.30625,9.36160714 2.99196429,8.58214286 C3.67232143,7.81071429 4.60446429,7.30982143 5.61696429,7.17053571 L5.62232143,7.17053571 C5.63571429,7.16785714 5.64910714,7.16785714 5.65982143,7.16517857 C5.66517857,7.16517857 5.66785714,7.1625 5.67321429,7.1625 C5.68392857,7.15982143 5.69464286,7.15714286 5.70535714,7.15714286 C5.71071429,7.15446429 5.71875,7.15446429 5.72410714,7.15178571 C5.73214286,7.14910714 5.74017857,7.14910714 5.74553571,7.14642857 C5.75357143,7.14375 5.76428571,7.14107143 5.77232143,7.13839286 C5.77767857,7.13571429 5.78035714,7.13571429 5.78571429,7.13303571 C5.79642857,7.13035714 5.80982143,7.125 5.82053571,7.12232143 C5.82321429,7.12232143 5.82321429,7.12232143 5.82589286,7.11964286 C5.91160714,7.0875 5.99196429,7.04196429 6.06428571,6.98839286 L6.06696429,6.98571429 L6.09910714,6.96160714 C6.10178571,6.95892857 6.10714286,6.95625 6.10982143,6.95357143 C6.11785714,6.94821429 6.12589286,6.94017857 6.13125,6.93482143 C6.13660714,6.92946429 6.14464286,6.92410714 6.15,6.91607143 L6.16339286,6.90267857 L6.1875,6.87857143 C6.19017857,6.87589286 6.19285714,6.87321429 6.19285714,6.87053571 C6.20357143,6.85982143 6.21160714,6.84910714 6.21964286,6.83839286 L6.22232143,6.83571429 C6.23303571,6.825 6.24107143,6.81428571 6.24910714,6.80089286 L6.24910714,6.79821429 C6.25714286,6.7875 6.26517857,6.77410714 6.27589286,6.76339286 C6.27589286,6.76339286 6.27589286,6.76071429 6.27857143,6.76071429 C6.28660714,6.75 6.29464286,6.73928571 6.3,6.72857143 C6.30267857,6.72589286 6.30267857,6.72321429 6.30535714,6.72053571 C6.31071429,6.70982143 6.31607143,6.70178571 6.32410714,6.69107143 C6.32678571,6.68571429 6.32946429,6.68303571 6.33214286,6.67767857 C6.3375,6.66964286 6.34017857,6.66160714 6.34553571,6.65357143 C6.34821429,6.64553571 6.35357143,6.64017857 6.35625,6.63214286 C6.35892857,6.62678571 6.36160714,6.62142857 6.36428571,6.61339286 C6.36964286,6.60267857 6.37232143,6.59464286 6.37767857,6.58392857 C6.38035714,6.58125 6.38035714,6.57589286 6.38303571,6.57321429 C6.38839286,6.55982143 6.39375,6.54910714 6.39642857,6.53571429 C6.39642857,6.53303571 6.39642857,6.53303571 6.39910714,6.53035714 C6.40446429,6.51696429 6.40982143,6.50089286 6.4125,6.48482143 C6.79285714,5.19375 7.59642857,4.03392857 8.67321429,3.21428571 C9.7875,2.37053571 11.1160714,1.92321429 12.5169643,1.92321429 C14.2178571,1.92321429 15.8142857,2.58482143 17.0169643,3.7875 C18.2196429,4.99017857 18.88125,6.58660714 18.88125,8.2875 C18.88125,8.59553571 19.0258929,8.87142857 19.2508929,9.04553571 C19.3633929,9.15535714 19.5026786,9.23839286 19.6660714,9.28125 C21.075,9.66964286 22.0607143,10.9633929 22.0607143,12.4285714 C22.0607143,14.2285714 20.5955357,15.69375 18.7955357,15.69375 C18.2625,15.69375 17.83125,16.125 17.83125,16.6580357 C17.83125,17.1910714 18.2625,17.6223214 18.7955357,17.6223214 C21.6589286,17.6223214 23.9892857,15.2919643 23.9892857,12.4285714 C23.9892857,11.2794643 23.6169643,10.18125 22.9098214,9.26517857 Z" id="路径"></path>
                    <path d="M12.7430804,8.28250558 C12.5421875,8.08161272 12.2716518,7.98786272 12.0091518,8.00125558 C11.7466518,7.98786272 11.4761161,8.08161272 11.2752232,8.28250558 L8.28325893,11.2744699 C7.90558036,11.6521484 7.90558036,12.2628627 8.28325893,12.6378627 C8.47075893,12.8253627 8.7171875,12.9191127 8.96629464,12.9191127 C9.21540179,12.9191127 9.45915179,12.8253627 9.64933036,12.6378627 L11.0475446,11.2396484 L11.0475446,17.5557199 C11.0475446,18.0887556 11.4787946,18.5200056 12.0118304,18.5200056 C12.5448661,18.5200056 12.9761161,18.0887556 12.9761161,17.5557199 L12.9761161,11.2396484 L14.3743304,12.6378627 C14.5618304,12.8253627 14.8082589,12.9191127 15.0573661,12.9191127 C15.3037946,12.9191127 15.5502232,12.8253627 15.7404018,12.6378627 C16.1180804,12.2601842 16.1180804,11.6494699 15.7404018,11.2744699 L12.7430804,8.28250558 Z" id="路径"></path>
                </g>
            </g>
        </g>
    </g>
</svg>