<?xml version="1.0" encoding="UTF-8"?>
<svg width="20px" height="20px" viewBox="0 0 20 20" version="1.1" xmlns="http://www.w3.org/2000/svg" xmlns:xlink="http://www.w3.org/1999/xlink">
    <title>chat</title>
    <g id="客户端" stroke="none" stroke-width="1" fill="none" fill-rule="evenodd">
        <g id="评论（图片）" transform="translate(-1429.000000, -169.000000)" fill="#A5A5A5" fill-rule="nonzero">
            <g id="编组-10" transform="translate(0.000000, 95.000000)">
                <g id="编组-11" transform="translate(320.000000, 0.000000)">
                    <g id="编组-12" transform="translate(985.000000, 74.000000)">
                        <g id="chat" transform="translate(124.000000, 0.000000)">
                            <path d="M10,2 C5.58884571,2 2,5.58884571 2,10 C2,11.3126171 2.32489143,12.6091429 2.94130286,13.7636114 L2.67792,17.1962057 L6.01922286,16.93984 C7.22733714,17.6341486 8.59865143,18 10,18 C14.4111543,18 18,14.4111543 18,10 C18,5.58884571 14.4111543,2 10,2 Z M10,16.6285714 C8.77588571,16.6285714 7.57990857,16.2919543 6.54107429,15.6550171 L6.35179429,15.5389486 L4.16763429,15.7064686 L4.34041143,13.4551314 L4.23661714,13.2727543 C3.67053714,12.2784686 3.37142857,11.1467657 3.37142857,10 C3.37142857,6.34498286 6.34498286,3.37142857 10,3.37142857 C13.6550171,3.37142857 16.6285714,6.34498286 16.6285714,10 C16.6285714,13.6550171 13.6550171,16.6285714 10,16.6285714 Z" id="形状"></path>
                            <path d="M9.98357664,12.9489051 C8.55125456,12.9489051 7.37442974,11.8424954 7.25793796,10.439781 L5.88932482,10.439781 C6.0087135,12.5974453 7.79655566,14.3175182 9.98357664,14.3175182 C12.1705976,14.3175182 13.9584398,12.5974453 14.0778285,10.439781 L12.7092153,10.439781 C12.5927235,11.8424954 11.4158987,12.9489051 9.98357664,12.9489051 Z" id="路径"></path>
                        </g>
                    </g>
                </g>
            </g>
        </g>
    </g>
</svg>