<?xml version="1.0" encoding="UTF-8"?>
<svg width="18px" height="18px" viewBox="0 0 18 18" version="1.1" xmlns="http://www.w3.org/2000/svg" xmlns:xlink="http://www.w3.org/1999/xlink">
    <title>collectionIcon</title>
    <g id="客户端" stroke="none" stroke-width="1" fill="none" fill-rule="evenodd">
        <g id="评论（图片）" transform="translate(-1533.000000, -1421.000000)" fill="#A5A5A5" fill-rule="nonzero" stroke="#A5A5A5" stroke-width="0.2">
            <g id="编组-4" transform="translate(320.000000, 1413.000000)">
                <g id="编组-5" transform="translate(1194.000000, 0.000000)">
                    <g id="collectionIcon" transform="translate(20.000000, 9.000000)">
                        <path d="M3.89025241,15.9997083 C3.62619472,15.9997083 3.37014471,15.9198269 3.14632066,15.7596736 C2.73031262,15.4717882 2.53031627,14.9837112 2.61019762,14.4796188 L3.25022502,10.5437531 C3.27424802,10.383795 3.22620202,10.223837 3.11429,10.1117297 L0.370394715,7.28795305 C0.0264556741,6.93600634 -0.0856516567,6.4239063 0.0664940066,5.96004757 C0.218444361,5.49599354 0.618437067,5.16006216 1.09850644,5.08799316 L4.81054813,4.52003477 C4.97851382,4.49601177 5.11464415,4.39210741 5.18651784,4.23996175 L6.82613638,0.751939414 C7.04214806,0.287885376 7.49018677,0 8.0020915,0 C8.51399622,0 8.96203493,0.288080685 9.17804662,0.751939414 L10.8100481,4.23996175 C10.8821171,4.39191211 11.0260598,4.49581646 11.1860178,4.52003477 L14.8980595,5.08779785 C15.3792788,5.15996948 15.7786254,5.49741886 15.9300719,5.95985227 C16.09003,6.4239063 15.9701103,6.93581103 15.6261712,7.28775774 L12.8820806,10.1117297 C12.7701686,10.223837 12.7221226,10.3918027 12.7461456,10.5437531 L13.386173,14.4796188 C13.4662497,14.9757035 13.2582457,15.4715929 12.8502453,15.7596736 C12.4422449,16.0477543 11.9143248,16.0797849 11.4742938,15.8317426 L8.24232149,14.0397831 C8.09037114,13.9599017 7.91439778,13.9599017 7.76244743,14.0397831 L4.52246744,15.8397502 C4.32227578,15.9436546 4.1062641,15.9997083 3.89025241,15.9997083 Z M8.0020915,0.799985413 C7.80209514,0.799985413 7.63412946,0.911897435 7.54604512,1.0880661 L5.9220513,4.57608843 C5.73807028,4.96807347 5.37010824,5.24814649 4.93808487,5.31201252 L1.22604318,5.87997091 C1.03405449,5.91200158 0.890111801,6.03211657 0.826050469,6.21590228 C0.761989137,6.3998833 0.810035136,6.59187199 0.945970158,6.72800232 L3.69025606,9.55177896 C3.97833674,9.84786731 4.1062641,10.26368 4.04220276,10.6716804 L3.40217537,14.6077415 C3.37014471,14.8077378 3.45022137,14.9917188 3.61017939,15.1036308 C3.77013741,15.2157382 3.97013376,15.2237458 4.13809945,15.1276538 L7.37807944,13.3276867 C7.77006448,13.111675 8.24212618,13.111675 8.63411122,13.3276867 L11.8740912,15.1276538 C12.0420569,15.2235505 12.2420532,15.2155429 12.4022066,15.1036308 C12.5621646,14.9917188 12.6422413,14.8075425 12.6102106,14.6077415 L11.9703785,10.6718757 C11.9063172,10.2638753 12.0344398,9.84786731 12.3223252,9.55197427 L15.0664158,6.72800232 C15.2023508,6.5920673 15.2423892,6.40007861 15.1863355,6.21590228 C15.1224695,6.03192126 14.9783315,5.90399391 14.7863428,5.87997091 L11.0744964,5.31201252 C10.642473,5.24814649 10.274511,4.96807347 10.09053,4.57608843 L8.45813787,1.0880661 C8.37024885,0.912092744 8.20228316,0.799985413 8.0020915,0.799985413 Z" id="形状"></path>
                    </g>
                </g>
            </g>
        </g>
    </g>
</svg>