<?xml version="1.0" encoding="UTF-8"?>
<svg width="93px" height="32px" viewBox="0 0 93 32" version="1.1" xmlns="http://www.w3.org/2000/svg" xmlns:xlink="http://www.w3.org/1999/xlink">
    <title>logowhite</title>
    <g id="客户端" stroke="none" stroke-width="1" fill="none" fill-rule="evenodd" opacity="0.5">
        <g id="评论（图片）" transform="translate(-320.000000, -2846.000000)" fill="#FFFFFF">
            <g id="footer" transform="translate(0.000000, 2803.000000)">
                <g id="logowhite" transform="translate(320.000000, 43.000000)">
                    <g id="logo" fill-rule="nonzero">
                        <path d="M9.21075581,10.6860465 C9.52703488,11.0023256 9.8619186,11.244186 10.2526163,11.4302326 C10.531686,11.5790698 10.9037791,11.5046512 11.1084302,11.2627907 C12.131686,10.0534884 13.4898256,9.19767442 15.0340116,8.78837209 C15.3688953,8.69534884 15.5735465,8.39767442 15.5549419,8.0627907 C15.5177326,7.43023256 15.5921512,6.79767442 15.759593,6.16511628 C16.2619186,4.32325581 17.5828488,2.66744186 19.3688953,1.51395349 C19.9456395,1.14186047 19.759593,0.248837209 19.0712209,0.174418605 C15.9828488,-0.253488372 12.931686,0.26744186 10.215407,1.49534884 C9.09912791,2.01627907 8.2247093,2.96511628 7.90843023,4.15581395 L7.90843023,4.1744186 C7.23866279,6.66744186 7.74098837,9.21627907 9.21075581,10.6860465 Z M5.48982558,20.1372093 C6.81075581,20.4906977 8.1130814,20.3976744 9.11773256,19.8581395 C9.22936047,19.8023256 9.34098837,19.7465116 9.43401163,19.672093 C9.7130814,19.4860465 9.8247093,19.1325581 9.7130814,18.8348837 C9.19215116,17.4023256 9.09912791,15.8209302 9.52703488,14.2395349 C9.62005814,13.9046512 9.45261628,13.5325581 9.15494186,13.3837209 C8.59680233,13.0860465 8.09447674,12.7139535 7.62936047,12.2674419 C6.27122093,10.9093023 5.50843023,8.9372093 5.39680233,6.81627907 C5.35959302,6.12790698 4.50377907,5.84883721 4.07587209,6.40697674 C2.82936047,8.04418605 1.8619186,9.94186047 1.30377907,12.0627907 C1.24796512,12.2488372 1.21075581,12.4348837 1.17354651,12.6209302 C0.447965116,15.727907 2.04796512,19.0023256 5.0619186,20.044186 C5.21075581,20.0627907 5.34098837,20.1 5.48982558,20.1372093 L5.48982558,20.1372093 Z M31.9642442,10.0162791 C30.8107558,7.24418605 28.8758721,4.78837209 26.3828488,3.02093023 C25.3781977,2.31395349 24.0944767,2.03488372 22.9037791,2.35116279 L22.8851744,2.35116279 C20.3921512,3.02093023 18.4386628,4.73255814 17.8991279,6.72325581 C17.7875,7.15116279 17.7502907,7.57906977 17.7688953,8.00697674 C17.7875,8.34186047 18.0479651,8.60232558 18.3642442,8.65813953 C18.5688953,8.69534884 18.7549419,8.73255814 18.959593,8.78837209 C20.3363372,9.16046512 21.5084302,9.86744186 22.4572674,10.8162791 C22.6991279,11.0581395 23.0712209,11.0953488 23.3502907,10.9093023 C25.043314,9.83023256 27.1456395,9.68139535 29.043314,10.1837209 C29.6944767,10.3511628 30.3270349,10.5930233 30.9223837,10.9093023 C31.5363372,11.244186 32.2247093,10.6488372 31.9642442,10.0162791 L31.9642442,10.0162791 Z M28.4665698,12.3604651 C27.759593,12.1744186 26.0107558,11.8581395 24.5223837,12.8069767 C24.243314,12.9930233 24.131686,13.3465116 24.243314,13.644186 C24.7642442,15.0767442 24.8572674,16.6581395 24.4293605,18.2395349 L24.4293605,18.2581395 C24.3363372,18.5930233 24.5037791,18.9651163 24.8014535,19.1139535 C25.359593,19.3930233 25.8619186,19.7651163 26.3270349,20.2302326 C27.6851744,21.5883721 28.4479651,23.5604651 28.559593,25.6813953 C28.5968023,26.3697674 29.4526163,26.6488372 29.8805233,26.0906977 C31.1270349,24.4534884 32.0944767,22.555814 32.6526163,20.4348837 C32.7084302,20.2488372 32.7456395,20.0627907 32.7828488,19.8767442 C33.5084302,16.7697674 31.9084302,13.4953488 28.8944767,12.4534884 C28.7642442,12.4348837 28.615407,12.3976744 28.4665698,12.3604651 Z M25.5083872,23.719578 C25.3160198,23.0142949 24.7155069,21.3416179 23.1496037,20.5270685 C22.8489479,20.3784103 22.487004,20.4584818 22.2850243,20.7039917 C21.3048577,21.8714095 19.9818408,22.7426677 18.3983588,23.1627871 L18.3822467,23.1720894 C18.0457172,23.2589708 17.8071961,23.5900262 17.8271366,23.9222384 C17.8645248,24.5451363 17.7934456,25.1662095 17.6232012,25.8015702 C17.1260876,27.6568233 15.7996003,29.3034659 14.0186348,30.4606036 C13.4410918,30.8370139 13.6273172,31.7177054 14.3246337,31.8092139 C16.3657544,32.07012 18.4929096,31.959112 20.6087588,31.3820099 C20.7977868,31.337323 20.9775124,31.2765239 21.1572381,31.2157249 C24.2107496,30.2906084 26.2464793,27.2677585 25.6417802,24.136668 C25.592776,24.0145809 25.5505816,23.8670795 25.5083872,23.719578 Z M13.6202188,27.6315018 C14.1348282,27.1122653 15.2831525,25.7558673 15.2056214,23.9924807 C15.1840353,23.6577759 14.9337193,23.3843591 14.6201118,23.3321945 C13.1190149,23.0670543 11.7029747,22.3569171 10.5473997,21.1956411 L10.5312876,21.1863388 C10.2877814,20.9383364 9.88181845,20.8972988 9.60408444,21.0806738 C9.08333316,21.424502 8.50992836,21.6734822 7.87456771,21.8437265 C6.0193146,22.3408401 3.9300366,22.0153897 2.03744318,21.0515972 C1.42269081,20.7396354 0.753102326,21.3412571 1.02251185,21.9909052 C1.81712089,23.8890206 2.97683421,25.675687 4.5345439,27.2195151 C4.66775793,27.3608747 4.81027429,27.4861222 4.95279064,27.6113696 C7.28072073,29.7932299 10.9164504,30.0447986 13.3257048,27.9555685 C13.4069332,27.8520861 13.513576,27.741794 13.6202188,27.6315018 Z" id="形状"></path>
                    </g>
                    <text id="拾光" font-family="NotoSansCJK-Black, Noto Sans CJK" font-size="24" font-weight="700">
                        <tspan x="45" y="25">拾光</tspan>
                    </text>
                </g>
            </g>
        </g>
    </g>
</svg>