<?xml version="1.0" encoding="UTF-8"?>
<svg width="16px" height="16px" viewBox="0 0 16 16" version="1.1" xmlns="http://www.w3.org/2000/svg" xmlns:xlink="http://www.w3.org/1999/xlink">
    <title>praised</title>
    <g id="客户端" stroke="none" stroke-width="1" fill="none" fill-rule="evenodd">
        <g id="评论（图片）" transform="translate(-1223.000000, -1759.000000)" fill-rule="nonzero">
            <g id="编组-6" transform="translate(320.000000, 1502.000000)">
                <g id="编组-3" transform="translate(23.000000, 22.000000)">
                    <g id="评论1" transform="translate(0.000000, 221.000000)">
                        <g id="编组-2" transform="translate(880.000000, 12.000000)">
                            <g id="praised" transform="translate(0.000000, 2.000000)">
                                <path d="M13.8274172,5.41613099 L10.0683566,5.41613099 C10.2753601,4.8612999 10.4062876,4.28099541 10.4575713,3.69103099 C10.5533201,2.89670844 10.4084602,2.09193142 10.0417393,1.38085341 C9.59781684,0.618076673 8.81551162,0.113965907 7.93746884,0.0248796117 C7.55403714,-0.0469097458 7.15783294,0.0381203775 6.83762342,0.260919493 C6.23245734,0.701359876 6.12096616,1.53955256 5.99239976,2.50982714 C5.94364495,3.30474332 5.73580809,4.08178336 5.38120713,4.7948941 C5.11955441,5.21574819 4.61081312,5.77471073 3.21516453,5.77471073 L1.75874824,5.77471073 C0.807990686,5.75732716 0.0221429509,6.51196552 0.00100442961,7.462647 L0.00100442961,13.8442615 C0.0213272097,14.7951369 0.806799906,15.55052 1.75774381,15.5337044 L12.3669833,15.5337044 C12.8489566,15.5339798 13.3179009,15.3772345 13.7028685,15.0872374 C14.0788263,14.8025247 14.3460684,14.3977628 14.460205,13.940184 L15.9201368,7.95029534 C16.0706926,7.33484431 15.9190601,6.68448449 15.511838,6.19908029 C15.0959132,5.6981078 14.4776903,5.41138508 13.8274172,5.41613099 Z" id="路径" fill="#F16D29"></path>
                                <path d="M1.17266623,7.46365143 C1.17980293,7.14675696 1.44182813,6.89528462 1.75874824,6.90117341 L2.99469325,6.90117341 L2.99469325,14.4077439 L1.75774381,14.4077439 C1.4408237,14.4136327 1.1787985,14.1621603 1.1716618,13.8452659 L1.17266623,7.46365143 Z" id="路径" fill="#FFFFFF"></path>
                                <path d="M13.3196804,13.6835534 C13.2080435,14.1159539 12.8145009,14.4154202 12.3679877,14.4077439 L4.1683639,14.4077439 L4.1683639,6.81981497 C5.08511992,6.68688669 5.89715598,6.15783289 6.38914765,5.37294072 C6.83430264,4.53067379 7.09600681,3.60366935 7.15703058,2.65295771 C7.19556885,2.29361625 7.25645447,1.93702443 7.33933374,1.5852539 C7.3631341,1.42512556 7.4357388,1.2762333 7.54724971,1.15887547 C7.61563264,1.12668588 7.69320407,1.11974715 7.76621437,1.13928918 C8.28544652,1.17938876 8.7519064,1.47184127 9.01421248,1.92173629 C9.52998474,2.83023873 9.30198026,4.36299134 8.8103142,5.40759337 C8.69239689,5.65552922 8.71475985,5.94739457 8.86907306,6.17447189 C9.02753971,6.40645227 9.29124345,6.5441433 9.57217059,6.54158924 L13.8294261,6.54158924 C14.1250932,6.53954463 14.406194,6.66977939 14.5958024,6.89665349 C14.7808409,7.11732355 14.8496658,7.41295364 14.7811188,7.69266033 L13.3196804,13.6835534 Z" id="路径" fill="#F16D29"></path>
                            </g>
                        </g>
                    </g>
                </g>
            </g>
        </g>
    </g>
</svg>