<?xml version="1.0" encoding="UTF-8"?>
<svg width="24px" height="26px" viewBox="0 0 24 26" version="1.1" xmlns="http://www.w3.org/2000/svg" xmlns:xlink="http://www.w3.org/1999/xlink">
    <title>praisebig</title>
    <g id="客户端" stroke="none" stroke-width="1" fill="none" fill-rule="evenodd">
        <g id="评论（图片）" transform="translate(-948.000000, -1297.000000)" fill="#FFFFFF" fill-rule="nonzero">
            <g id="点赞" transform="translate(919.000000, 1277.000000)">
                <g id="praisebig" transform="translate(29.000000, 20.000000)">
                    <path d="M14.437256,0 C13.052612,0 11.8453244,0.946272556 11.5913739,2.28443949 C11.5913739,2.28443949 11.1797732,4.3803681 10.9644916,5.13403979 C10.6105224,6.37627813 9.37237408,7.74939579 8.47629671,8.18776725 C7.79959101,8.52240196 5.28425358,8.52612012 5.13032163,8.52612009 L1.70775239,8.52612009 C0.765569833,8.52612009 0,9.28759992 0,10.2338725 L0,23.8944042 C0,24.8365867 0.761479831,25.6021565 1.70775239,25.6021565 L17.4679308,25.6021565 C20.0022309,25.6021565 22.1561629,23.7486522 22.5331846,21.2411229 L23.8523889,12.4495259 C24.163971,10.3844581 22.5640454,8.5305819 20.4755531,8.5305819 L16.591188,8.5305819 C16.591188,8.5305819 17.1682469,6.61907419 17.4604945,3.39245214 C17.6066183,1.75794757 16.4491541,0.200409001 14.7492099,0.023424444 C14.6451013,0.00780816718 14.5413646,0 14.437256,0 Z M6.82654771,23.8903142 L6.82654771,10.1799591 C7.94571485,10.1070831 8.75329989,9.94943297 9.2299684,9.71072692 C10.4874512,9.08756276 12.095185,7.38018221 12.6027143,5.59583567 C12.829894,4.79977693 13.2180703,2.83063766 13.2641755,2.59973972 C13.3641941,2.0844023 13.8564789,1.70366238 14.433166,1.70366238 C14.4792712,1.70366238 14.5253765,1.70738055 14.5718535,1.71147055 C15.3831567,1.79624468 15.81781,2.56553265 15.7601785,3.22662205 C15.4909835,6.21490983 14.9600298,8.01487264 14.9525934,8.02639897 L14.287414,10.2260643 L20.4755531,10.2260643 C20.9793642,10.2260643 21.4407883,10.4376278 21.7717048,10.8183677 C22.1026213,11.1991076 22.240937,11.6876743 22.163971,12.1877672 L20.8484848,20.9789924 C20.5945343,22.6633203 19.1753114,23.8862242 17.471649,23.8862242 L6.82654771,23.8862242 L6.82654771,23.8903142 Z M1.70775239,23.8903142 L1.70775239,10.2297825 L5.11916713,10.2297825 L5.11916713,23.8903142 L1.70775239,23.8903142 L1.70775239,23.8903142 Z" id="形状"></path>
                </g>
            </g>
        </g>
    </g>
</svg>