<?xml version="1.0" encoding="UTF-8"?>
<svg width="20px" height="20px" viewBox="0 0 20 20" version="1.1" xmlns="http://www.w3.org/2000/svg" xmlns:xlink="http://www.w3.org/1999/xlink">
    <title>seen</title>
    <g id="客户端" stroke="none" stroke-width="1" fill="none" fill-rule="evenodd">
        <g id="评论（图片）" transform="translate(-1326.000000, -169.000000)" fill="#A5A5A5" fill-rule="nonzero">
            <g id="编组-10" transform="translate(0.000000, 95.000000)">
                <g id="编组-11" transform="translate(320.000000, 0.000000)">
                    <g id="编组-12" transform="translate(985.000000, 74.000000)">
                        <g id="seen" transform="translate(21.000000, 0.000000)">
                            <path d="M19.336376,8.45380261 C17.6569276,6.79057717 15.2923709,4.00007972 9.98401626,4.00007972 C4.67637915,4.00007972 2.31178253,6.79057717 0.632334184,8.45380261 C0.236527423,8.84606186 0.0187340561,9.36627073 0.0187340561,9.91932398 C0.0187340561,10.4719388 0.236567283,10.9925462 0.632334184,11.384367 C2.31182239,13.0480309 4.67602041,15.8380899 9.98401626,15.8380899 C15.2926897,15.8380899 17.6569276,13.0480309 19.336376,11.384367 C19.7321827,10.9925462 19.9500159,10.4718989 19.9500159,9.91932398 C19.9500159,9.36623087 19.7321827,8.84606186 19.336376,8.45380261 Z M18.5722656,10.6223294 C17.0112404,12.1680086 14.9035794,14.7621173 9.98401626,14.7621173 C5.06513074,14.7621173 2.95746971,12.1679687 1.39644452,10.6223294 C1.20615434,10.4336336 1.10148278,10.1836735 1.10148278,9.91928412 C1.10148278,9.65445631 1.20615434,9.40497449 1.39644452,9.21671716 C2.95782844,7.67059949 5.06548948,5.07601244 9.98401626,5.07601244 C14.9032207,5.07601244 17.0108817,7.67059949 18.5722656,9.21671716 C18.7625957,9.40497449 18.8672672,9.65449617 18.8672672,9.91928412 C18.8672672,10.1836735 18.7625957,10.4335937 18.5722656,10.6223294 Z M9.98433514,6.86981824 C8.29292889,6.86981824 6.91657366,8.23804209 6.91657366,9.91884566 C6.91657366,11.6000877 8.29292889,12.9683115 9.98433514,12.9683115 C11.6758211,12.9683115 13.0521365,11.6000877 13.0521365,9.91884566 C13.0521365,8.23804209 11.6758211,6.86981824 9.98433514,6.86981824 Z M9.98433514,11.8923788 C8.88994739,11.8923788 7.99932239,11.0069356 7.99932239,9.91884566 C7.99932239,8.8311942 8.88998724,7.94622927 9.98433514,7.94622927 C11.0787229,7.94622927 11.9693479,8.8311942 11.9693479,9.91884566 C11.9693878,11.0069356 11.0787628,11.8923788 9.98433514,11.8923788 Z" id="形状"></path>
                        </g>
                    </g>
                </g>
            </g>
        </g>
    </g>
</svg>